<?xml version="1.0" encoding="UTF-8" standalone="no"?><!DOCTYPE svg PUBLIC "-//W3C//DTD SVG 1.1//EN" "http://www.w3.org/Graphics/SVG/1.1/DTD/svg11.dtd"><svg width="100%" height="100%" viewBox="0 0 4267 4267" version="1.1" xmlns="http://www.w3.org/2000/svg" xmlns:xlink="http://www.w3.org/1999/xlink" xml:space="preserve" xmlns:serif="http://www.serif.com/" style="fill-rule:evenodd;clip-rule:evenodd;stroke-linejoin:round;stroke-miterlimit:2;"><path d="M629.272,836.258c51.384,-52.679 105.771,-109.354 161.338,-157.444c361.032,-315.808 823.108,-492.078 1302.744,-496.971c530.955,-9.185 1043.691,193.526 1424.816,563.309c380.278,364.542 596.952,867.384 600.738,1394.155c1.368,188.626 -22.388,376.587 -70.637,558.945c-12.783,49.444 -50.696,142.982 -56.885,178.001c18.24,97.288 -7.564,194.084 -51.651,281.043c-19.948,-14.223 -39.607,-28.837 -58.976,-43.841c-41.185,62.154 -79.916,125.973 -119.994,188.901l-11.292,12.891c-35.822,59.404 -115.087,147.492 -163.285,198.376c-267.855,284.278 -612.673,484.428 -992.372,576.034c-517.955,124.315 -1064.023,40.251 -1520.605,-234.096c-448.903,-269.578 -771.826,-706.986 -897.248,-1215.365c-97.78,-399.879 -70.572,-824.31 80.365,-1208.337c48.944,-124.525 97.708,-209.385 165.652,-321.193c-5.834,-15.244 -8.23,-42.01 -10.119,-58.752c-18.081,-160.26 48.184,-253.936 217.412,-215.653Z" style="fill:#1b222f;fill-rule:nonzero;"/><path d="M3749.473,3315.245c-35.822,59.404 -115.087,147.492 -163.285,198.376c-267.855,284.278 -612.673,484.428 -992.372,576.034c-517.955,124.315 -1064.023,40.251 -1520.605,-234.096c-448.903,-269.578 -771.826,-706.986 -897.248,-1215.365c-97.78,-399.879 -70.572,-824.31 80.365,-1208.337c48.944,-124.525 97.708,-209.385 165.652,-321.193c13.564,56.479 -8.114,105.055 0.058,156.749c12.826,81.096 36.053,142.599 27.708,227.857c-6.152,62.871 -30.118,115.116 -48.032,175.561c-22.294,73.055 -38.854,147.738 -49.531,223.369c-6.051,45.702 -11.096,92.301 -14.332,138.307c-85.041,1208.257 1012.588,2108.025 2183.656,1849.463c246.531,-55.321 478.464,-162.489 680.372,-314.382c49.95,-37.479 93.654,-77.506 141.18,-116.947c102.362,5.327 193.613,4.886 285.154,-46.44c22.894,-12.833 46.708,-31.681 66.106,-42.336l7.412,-7.832c13.912,-9.8 28.533,-25.486 47.743,-38.789Z" style="fill:#51bdc3;fill-rule:nonzero;"/><path d="M629.272,836.258c51.384,-52.679 105.771,-109.354 161.338,-157.444c361.032,-315.808 823.108,-492.078 1302.744,-496.971c530.955,-9.185 1043.691,193.526 1424.816,563.309c380.278,364.542 596.952,867.384 600.738,1394.155c1.368,188.626 -22.388,376.587 -70.637,558.945c-12.783,49.444 -50.696,142.982 -56.885,178.001c-19.55,-115.173 -64.26,-209.885 -134.745,-302.439c25.326,-97.708 39.535,-237.303 44.623,-338.883c21.454,-459.145 -140.051,-908.048 -449.098,-1248.284c-314.874,-348.524 -754.816,-558.373 -1223.834,-583.75c-426.03,-20.593 -818.628,86.981 -1167.492,337.146c-84.875,60.866 -138.509,112.799 -215.161,182.235c-75.501,-12.703 -132.357,-59.679 -216.406,-86.018Z" style="fill:#51bdc3;fill-rule:nonzero;"/><path d="M3715.671,2968.639c58.028,44.732 112.358,107.841 165.088,144.814c-41.185,62.154 -79.916,125.973 -119.994,188.901c-19.905,-14.281 -176.394,-69.899 -207.583,-81.292c66.301,-90.441 104.591,-159.261 162.489,-252.423Z" style="fill:#51bdc3;fill-rule:nonzero;"/><path d="M2938.59,2278.011c361.604,-32.659 784.594,174.41 927.258,520.843c28.576,69.392 30.574,130.46 28.395,203.739c-120.298,-143.656 -243.491,-237.274 -424.879,-293.261c-57.08,-17.292 -107.081,-27.295 -165.558,-39.339c-86.496,202.415 -243.101,306.275 -454.795,347.25c-36.784,-15.287 -74.727,-46.136 -100.618,-76.391c-133.196,-155.664 -187.179,-302.504 -184.891,-504.521c74.994,-98.106 258.344,-146.29 375.088,-158.32Z" style="fill:#51bdc3;fill-rule:nonzero;"/><path d="M873.763,2494.627c64.716,-154.086 133.399,-270.258 248.196,-393.792c222.544,-239.474 567.97,-385.938 894.216,-395.789c16.308,21.62 38.514,37.096 56.335,56.819c50.501,55.871 104.62,125.495 134.536,194.525c-166.108,-12.971 -333.085,9.301 -489.979,65.361c-194.12,68.545 -380.343,218.339 -491.463,390.44c-34.54,53.49 -60.402,107.023 -87.98,164.111c-86.785,-28.077 -176.517,-54.691 -263.86,-81.675Z" style="fill:#51bdc3;fill-rule:nonzero;"/><path d="M792.55,2420.356c-34.714,-39.021 -81.27,-116.484 -91.548,-167.701c-20.889,-104.128 64.709,-275.318 122.137,-356.993c177.791,-252.85 495.147,-431.944 795.096,-487.511c4.046,10.032 2.613,10.741 12.37,17.031c77.593,49.994 171.783,97.534 239.134,161.613c8.324,6.464 15.881,12.645 24.697,18.443c6.637,5.363 12.609,10.285 19.065,15.909c-131.611,12.232 -260.935,42.401 -384.382,89.659c-190.515,71.18 -355.046,183.357 -494.959,330.537c-105.655,111.142 -178.42,240.864 -241.609,379.011Z" style="fill:#51bdc3;fill-rule:nonzero;"/><path d="M648.301,2089.833c-81.972,-127.804 -88.848,-274.094 -17.741,-407.269c116.541,-218.266 337.269,-362.776 567.992,-435.744c13.724,17.118 161.548,103.107 199.136,135.122c-57.717,14.628 -146.855,55.053 -200.562,81.075c-203.877,98.779 -375.247,251.41 -481.12,453.13c-29.474,56.168 -48.003,113.451 -67.706,173.687Z" style="fill:#51bdc3;fill-rule:nonzero;"/><path d="M2332.091,2371.969c35.221,-2.722 167.86,-8.917 175.46,41.294c13.521,89.261 -9.279,182.119 7.354,272.212c15.092,81.762 46.208,151.791 79.214,227.046c-77.687,9.062 -111.735,0.08 -184.023,-32.022c-97.563,-47.084 -295.794,-212.505 -317.473,-325.919c-20.846,-109.064 155.707,-170.965 239.467,-182.611Z" style="fill:#51bdc3;fill-rule:nonzero;"/><path d="M2016.174,1705.046c65.071,-1.614 110.693,-0.347 175.873,5.175c164.197,21.389 325.912,66.026 430.59,202.198c51.376,67.604 89.246,144.473 111.54,226.402c-124.634,-79.743 -215.863,-122.918 -362.356,-156.199c-57.391,-13.528 -106.575,-19.666 -164.777,-26.231c-29.915,-69.03 -84.035,-138.654 -134.536,-194.525c-17.82,-19.724 -40.027,-35.199 -56.335,-56.819Z" style="fill:#51bdc3;fill-rule:nonzero;"/><path d="M2016.174,1705.046c65.071,-1.614 110.693,-0.347 175.873,5.175c0.297,1.288 3.706,16.018 3.713,16.025c56.255,62.885 111.055,128.962 154.477,201.496c10.959,18.305 15.634,34.844 21.584,54.88c-57.391,-13.528 -106.575,-19.666 -164.777,-26.231c-29.915,-69.03 -84.035,-138.654 -134.536,-194.525c-17.82,-19.724 -40.027,-35.199 -56.335,-56.819Z" style="fill:#6bcbd0;fill-rule:nonzero;"/><path d="M3196.659,2904.4c17.473,8.28 33.918,38.442 43.863,55.191c-2.808,28.316 -11.603,59.671 -18.551,87.654c27.968,10.394 56.61,21.613 83.072,35.308c-2.273,106.09 -7.919,93.958 95.442,122.875l12.088,58.477c36.516,23.372 104.845,50.609 146.138,65.628c-85.135,22.8 -178.319,21.287 -264.815,8.15c-11.624,-2.41 -23.206,-5.016 -34.743,-7.81c-143.858,-35.402 -285.697,-138.241 -362.501,-265.105c134.507,-28.707 207.54,-48.944 300.007,-160.368Z" style="fill:#51bdc3;fill-rule:nonzero;"/><path d="M1746.922,1392.141c22.004,-4.198 65.621,-3.264 88.95,-2.497c113.646,3.728 224.441,28.446 319.029,94.371c68.9,48.025 140.811,113.509 189.27,182.785c-126.957,-37.667 -206.808,-49.907 -339.846,-49.046c-23.915,0.796 -68.401,4.039 -90.824,3.395c-6.456,-5.624 -12.428,-10.546 -19.065,-15.909c-8.816,-5.798 -16.373,-11.979 -24.697,-18.443c-67.351,-64.079 -161.541,-111.62 -239.134,-161.613c-9.757,-6.29 -8.324,-6.999 -12.37,-17.031c42.531,-7.919 85.512,-13.268 128.687,-16.011Z" style="fill:#51bdc3;fill-rule:nonzero;"/><path d="M1618.235,1408.151c42.531,-7.919 85.512,-13.268 128.687,-16.011l6.283,3.735l-2.678,6.666c4.69,10.597 122.954,73.923 143.279,85.707c52.672,30.552 94.053,66.359 142.787,101.045l6.181,5.639c-5.378,15.584 -23.473,18.124 -38.449,22.822c-23.915,0.796 -68.401,4.039 -90.824,3.395c-6.456,-5.624 -12.428,-10.546 -19.065,-15.909c-8.816,-5.798 -16.373,-11.979 -24.697,-18.443c-67.351,-64.079 -161.541,-111.62 -239.134,-161.613c-9.757,-6.29 -8.324,-6.999 -12.37,-17.031Z" style="fill:#6bcbd0;fill-rule:nonzero;"/><path d="M572.605,1649.29c-65.903,-175.554 -27.925,-281.926 113.704,-397.114c71.194,-57.898 124.612,-86.735 208.394,-121.456c11.921,18.595 125.915,74.835 154.535,94.726c-158.277,64.289 -303.105,165.385 -403.085,305.327c-26.803,37.515 -49.075,79.055 -73.547,118.517Z" style="fill:#51bdc3;fill-rule:nonzero;"/><path d="M1261.416,1227.82c207.518,-50.826 337.059,-42.633 511.137,89.341c-120.009,3.474 -187.251,13.058 -304.082,42.408l-70.782,22.373c-37.588,-32.014 -185.412,-118.004 -199.136,-135.122c15.786,-6.087 45.579,-13.948 62.863,-19Z" style="fill:#51bdc3;fill-rule:nonzero;"/><path d="M1261.416,1227.82c41.757,29.293 179.745,85.461 208.48,117.591c-0.159,7.311 0.297,7.187 -1.426,14.158l-70.782,22.373c-37.588,-32.014 -185.412,-118.004 -199.136,-135.122c15.786,-6.087 45.579,-13.948 62.863,-19Z" style="fill:#6bcbd0;fill-rule:nonzero;"/><path d="M1745.135,2987.328c21.512,-1.52 33.455,-7.028 47.453,11.212c0.145,35.561 -122.882,225.961 -147.948,261.862c-74.054,28.055 -165.913,33.737 -244.534,33.65l-58.557,-5.61c79.475,-41.171 195.394,-59.157 237.165,-133.348c23.234,-41.272 47.888,-91.751 74.473,-130.127c23.191,-33.484 55.307,-34.186 91.946,-37.638Z" style="fill:#51bdc3;fill-rule:nonzero;"/><path d="M745.423,1025.21c69.305,-16.387 132.067,-8.447 193.512,29.372c2.287,1.411 4.553,2.859 6.797,4.35l-103.491,33.223l-33.846,15.149c-127.703,65.954 -184.956,110.7 -270.548,222.363c-53.027,-154.122 26.492,-227.785 157.271,-286.747l50.305,-17.712Z" style="fill:#51bdc3;fill-rule:nonzero;"/><path d="M745.423,1025.21c69.305,-16.387 132.067,-8.447 193.512,29.372c2.287,1.411 4.553,2.859 6.797,4.35l-103.491,33.223c-30.277,-37.096 -54.366,-48.879 -96.818,-66.946Z" style="fill:#51bdc3;fill-rule:nonzero;"/><path d="M695.118,1042.921l50.305,-17.712c42.452,18.066 66.54,29.85 96.818,66.946l-33.846,15.149c-30.176,-14.636 -91.555,-42.676 -113.277,-64.383Z" style="fill:#6bcbd0;fill-rule:nonzero;"/><path d="M1996.125,2928.156c13.738,-1.151 12.182,-3.163 22.482,2.164c9.337,28.294 -64.716,262.231 -80.836,302.62c-75.726,52.136 -139.313,86.865 -227.633,113.675c-12.269,1.209 -11.972,1.744 -23.683,-1.368c11.14,-18.551 131.742,-119.581 156.185,-142.722c19.579,-65.455 23.097,-158.154 50.957,-222.638c12.406,-28.735 70.97,-41.561 102.528,-51.731Z" style="fill:#51bdc3;fill-rule:nonzero;"/><path d="M1784.59,2647.446c23.495,13.81 217.268,200.323 231.201,222.848l-2.765,7.709c-25.037,24.465 -73.351,34.96 -107.248,42.966l-7.919,0.796c-23.524,-9.171 -203.131,-227.256 -228.204,-257.649c35.612,-10.054 77.745,-13.043 114.935,-16.669Z" style="fill:#51bdc3;fill-rule:nonzero;"/><path d="M1590.354,2658.1c4.488,-0.709 26.702,-2.794 28.656,-0.261c27.809,35.966 182.192,249.007 172.898,274.435c-21.034,16.358 -43.414,16.474 -69.906,19.796c-11.299,1.65 -43.53,2.714 -56.262,3.467c-50.812,-87.003 -104.577,-198.434 -150.662,-288.737c25.044,-5.552 49.712,-6.717 75.277,-8.7Z" style="fill:#51bdc3;fill-rule:nonzero;"/><path d="M1407.41,2952.491c25.782,3.829 106.401,20.802 116.672,43.885c-10.98,39.991 -130.287,122.166 -166.036,148.889c-53.866,0.767 -65.911,-2.034 -118.901,-17.111c-59.787,-20.433 -93.56,-40.736 -140.21,-81.907c68.538,-4.502 136.801,-2.562 209.979,-7.832c29.886,-23.495 69.573,-60.142 98.497,-85.924Z" style="fill:#51bdc3;fill-rule:nonzero;"/><path d="M1384.045,2669.045c31.544,-2.338 61.698,-2.048 93.264,-2.07c23.35,80.235 53.338,164.226 72.389,245.011c3.445,14.592 -1.339,20.383 -8.78,30.632c-42.937,2.179 -82.044,-8.932 -121.391,-25.37c-16.641,-60.938 -28.989,-170.538 -41.091,-236.55c-1.296,-7.079 0.282,-6.312 5.61,-11.653Z" style="fill:#51bdc3;fill-rule:nonzero;"/><path d="M934.107,1116.316c123.258,-37.262 205.303,-36.806 321.128,25.095c10.104,5.414 20.158,10.93 30.154,16.532c-67.706,13.217 -110.816,23.734 -176.531,45.571c-17.14,6.181 -43.632,14.911 -59.621,21.932c-28.62,-19.89 -142.613,-76.131 -154.535,-94.726l39.404,-14.404Z" style="fill:#51bdc3;fill-rule:nonzero;"/><path d="M894.702,1130.72l39.404,-14.404c33.534,14.672 155.946,65.339 174.751,87.198c-17.14,6.181 -43.632,14.911 -59.621,21.932c-28.62,-19.89 -142.613,-76.131 -154.535,-94.726Z" style="fill:#6bcbd0;fill-rule:nonzero;"/><path d="M537.427,925.859c57.551,-2.917 134.427,38.833 184.508,65.585c-39.318,13.036 -64.47,24.508 -100.878,43.755c-38.21,24.327 -59.867,44.609 -92.779,76.022c-17.726,-51.608 -36.068,-144.698 9.149,-185.362Z" style="fill:#51bdc3;fill-rule:nonzero;"/><path d="M1699.06,2122.075c-28.353,-0.886 -40.753,19.578 -31.065,44.148c18.581,47.113 39.353,103.724 61.723,148.644c0,0 48.495,43.571 52.863,-15.187c1.426,-19.185 -52.628,-145.082 -67.794,-166.193c-3.232,-4.494 -10.751,-8.825 -15.728,-11.413l0,0Z" style="fill:#50bac3;fill-rule:nonzero;"/><path d="M2129.828,2122.075c28.353,-0.886 40.753,19.578 31.065,44.148c-18.581,47.113 -39.353,103.724 -61.723,148.644c0,0 -48.495,43.571 -52.863,-15.187c-1.426,-19.185 52.628,-145.082 67.794,-166.193c3.232,-4.494 10.751,-8.825 15.728,-11.413l0,0Z" style="fill:#50bac3;fill-rule:nonzero;"/></svg>