<?xml version="1.0" encoding="UTF-8" standalone="no"?><!DOCTYPE svg PUBLIC "-//W3C//DTD SVG 1.1//EN" "http://www.w3.org/Graphics/SVG/1.1/DTD/svg11.dtd"><svg width="100%" height="100%" viewBox="0 0 74084 74084" version="1.1" xmlns="http://www.w3.org/2000/svg" xmlns:xlink="http://www.w3.org/1999/xlink" xml:space="preserve" xmlns:serif="http://www.serif.com/" style="fill-rule:evenodd;clip-rule:evenodd;stroke-linejoin:round;stroke-miterlimit:2;"><rect x="-2197.371" y="-2630.487" width="78478.075" height="76713.821" style="fill:#1c2230;"/><path d="M20901.738,5925.108c2953.421,41.771 16020.921,14.792 18976.075,12.346l13584.496,-7.692l5633.679,-5.262c1264.463,-1.388 2978.367,-61.217 4169.479,149.096c1353.871,249.446 2602.571,896.929 3586.508,1859.704c1601.858,1569.304 2207.171,3542.829 2217.742,5739.079l-2.171,33281.179l-1.875,9863.283l-0.938,2861.179c-0.8,706.738 15.329,1560.971 -89.112,2251.946c-222.587,1563.733 -939.808,3015.121 -2046.65,4141.925c-1613.717,1618.054 -3399.446,2078.421 -5610.746,2085.504l-34621.388,2.9l-9927.517,1.738l-2875.504,1.008c-914.133,0 -1781.321,21.408 -2690.537,-115.017c-1516.354,-222.429 -2919.913,-929.758 -4000.8,-2016.2c-1130.121,-1132.742 -1814.775,-2590.713 -2080.608,-4166.737c-131.804,-781.387 -107.658,-1657.846 -108.075,-2456.529l0.104,-2779.304l0.833,-9521.129l-4.6,-33467.517c10.592,-3442.637 1868.925,-6516.508 5332.863,-7455.104c1171.804,-317.533 2521.633,-261.717 3734.079,-259.183l2937.637,4.512l7407.917,-10.921c-2084.133,578.696 18253.246,1562.675 16684.238,3063.542l-26695.45,-0.329c-1330.8,-0.296 -2989.879,-133.75 -4177.658,524.808c-989.008,555.192 -1719.983,1477.204 -2034.946,2566.771c-252.308,888.317 -156.112,3004.55 -155.017,4032.917l2.242,5494.358l5,23718.821l0.137,10369.288l48.092,4496.133c0.071,1419.479 236.35,1924.279 983.692,3253.221c628.971,1118.458 3132.962,1905.704 5420.979,1647.067l4659.513,0.867l9934.825,-1.962c1918.629,0.8 3896.771,26.613 5811.492,-5.571c413.767,-103.804 1664.863,56.425 1966.283,-80.071c89.046,12.517 139.529,29.375 224.096,3.333l96.058,87.446l17649.808,-3.7l4702.05,2.675c823.854,0.367 2192.204,38.7 2957.829,-83.542c867.483,-136.146 1670.783,-540.071 2297.308,-1155.383c926.946,-917.9 1188.663,-2003.613 1196.979,-3263.888l-2.1,-32413.7l-0.571,-10401.908l2.242,-2991.963c2.675,-1742.188 99.758,-3222.95 -1240.521,-4564.896c-616.092,-621.892 -1416.233,-1028.646 -2281.683,-1159.929c-734.671,-116.529 -2246.963,-75.154 -3054.029,-73.488l-5091.579,3.837l-18452.05,-1.667c-1299.046,-1462.467 -13219.496,-2303.575 -14978.175,-3057.863l0.017,-0.033l0.008,0.004Z" style="fill:#50bac3;fill-rule:nonzero;"/><path d="M46628.392,49944.963c68.212,-7.379 136.042,-16.529 203.383,-27.396c1382.604,-217.204 2551.667,-739.062 3609.654,-1449.217c216.754,-145.467 615.679,-442.763 768.196,-629.392l105.329,-60.971c1062.917,-1012.379 1474.029,-1623.679 2014.358,-2849.687l141.25,23.279c2838.733,473.175 5212.275,1516.163 7108.3,3281.858c507.237,472.292 898.471,934.533 1336.754,1447.533c712.242,-6127.412 -8288.142,-12122.083 -15844.967,-10218.942c-1129.096,284.375 -3054.792,1112.483 -3601.179,1972.467c23.767,371.717 1.979,762.188 23.317,1140.383c48.662,1019.671 270.279,2032.5 659.008,3011.908c515.488,1283.942 1983.662,3729.304 3476.579,4358.175l0.017,0Z" style="fill:#50bac3;fill-rule:nonzero;"/><path d="M34485.562,30798.658c-5273.179,273.854 -10042.812,2242.308 -13616.667,6208.454c-1399.133,1566.283 -2503.263,3372.917 -3258.975,5332.429c1259.237,418.871 2640.137,781.717 3845.904,1198.887c1529.654,-3624.983 4443.142,-6489.254 8093.646,-7956.858c637.188,-265.033 3010.521,-981.058 4399.254,-1128.942c1116.683,-118.925 2242.275,-129.254 3361.008,-30.625c-217.517,-647.083 -1658.262,-2431.425 -2180.279,-3009.392c-213.925,-236.842 -489.862,-358.35 -643.887,-613.975l0,0.017l-0.004,0.004Z" style="fill:#50bac3;fill-rule:nonzero;"/><path d="M28597.454,26536.854c-4194.95,668.542 -9063.404,3273.575 -11576.075,6759.408c-898.525,1223.437 -1539.429,2616.617 -1883.925,4094.967c-91.058,374.254 -215.137,845.642 -137.154,1222.204c195.138,942.708 851.7,1926.338 1392.742,2693.679c1403.888,-3228.283 2991.058,-5448.75 5805.088,-7619.983c1448.783,-1129.287 3055.817,-2039.304 4769.479,-2700.8c1816.737,-714.967 3921.042,-1240.138 5869.496,-1381.754c-405.592,-660.433 -2290.071,-1789.325 -2989.429,-2257.763c-250.571,-167.846 -1159.567,-579.046 -1250.225,-809.967l0.004,0.008Z" style="fill:#50bac3;fill-rule:nonzero;"/><path d="M52094.104,54343.833c1145.729,480.521 3592.883,531.754 4805.121,156.162c-564.408,-221.7 -1547.708,-647.933 -2016.196,-1015.279c-59.688,-177.517 -119.2,-588.35 -170.904,-804.425c-1925.713,-508.021 -1226.058,-268.229 -1413.7,-1783.454c-326.529,-160.8 -843.196,-360.279 -1189.392,-508.037c106.875,-433.629 204.775,-818.212 255.104,-1264.133c-37.204,-85.817 -87.658,-172.154 -133.421,-255.017c-160.883,-234.2 -280.45,-405.521 -465.554,-626.442c-853.958,1207.396 -2165.017,1971.979 -3656.929,2260.921c-234.183,45.329 -473.246,100.608 -706.754,151.025c14.221,34.533 34.463,83.837 52.829,116.442c912.171,1618.542 2891.963,2962.621 4639.775,3572.221l0.017,0.017l0.004,0Z" style="fill:#50bac3;fill-rule:nonzero;"/><path d="M42948.288,48468.921c-132.588,-335.417 -299.358,-659.046 -438.125,-992.5c-420.504,-1010.225 -787.692,-2152.779 -833.804,-3250.817c-21.179,-504.358 112.829,-3017.654 -42.779,-3277.988c-128.35,-214.721 -424.583,-311.321 -653.037,-366.304c-807.917,-194.254 -2176.267,-109.463 -2978.317,139.912c-428.558,133.263 -815.279,333.646 -1196.512,567.692c-342.829,230.625 -900.696,586.129 -1105.017,931.546c-751.267,1272.725 969.304,2961.683 1825.8,3769.863c1379.55,1301.825 3410.675,2969.304 5421.804,2478.612l-0.017,-0.017l0.004,0Z" style="fill:#50bac3;fill-rule:nonzero;"/><path d="M22438.271,24055.221c-3243.942,950.296 -6669.304,3056.321 -8327.275,6087.9c-1293.279,2364.758 -1058.108,3979.983 122.396,6277.571c1048.717,-3699.117 3556.179,-6660.383 6895.087,-8522.396c1373.196,-777.133 2827.029,-1402.133 4335.817,-1864.062c-899.862,-672.033 -1866.529,-1203.021 -2832.917,-1765.833c-98.175,-57.083 -141.475,-115.921 -193.108,-213.158l-0,-0.021Z" style="fill:#50bac3;fill-rule:nonzero;"/><g><path d="M31188.392,49639.7c-267.5,-310.208 -1418.246,-42.467 -1827.413,26.025c-537.533,762.083 -1269.254,2063.854 -1721.546,2880.537c-914.617,465.208 -2084.496,869.808 -3013.717,1309.133c124.567,37.95 232.033,54.408 359.879,76.633c1241.321,184.096 2855.121,-55.904 4042.967,-481.233c417.917,-771.596 922.483,-1488.75 1380.329,-2234.583c253.8,-413.454 772.862,-1113.629 779.479,-1576.492l0.021,-0.021Z" style="fill:#50bac3;fill-rule:nonzero;"/><path d="M34472.35,48709.092c-27.258,-24.237 -88.992,-73.975 -121.562,-72.204c-351.579,19.254 -1334.288,395.883 -1623.596,540.729c-300,477.117 -613.179,2786.737 -836.908,3486.217c-700.087,605.088 -1374.638,1241.129 -2078.454,1842.55c-89.513,76.475 -175.867,159.408 -260.433,241.283l249.183,-14.254c1392.658,-230.592 2333.179,-937.829 3487.412,-1620.904c255.85,-582.154 1328.229,-3987.779 1184.375,-4403.404l-0.017,-0.017l0,0.004Z" style="fill:#50bac3;fill-rule:nonzero;"/><path d="M34461.621,47755.55c-192.221,-251.512 -833.646,-824.704 -1084.183,-1058.021c-762.154,-699.738 -1520.538,-1403.454 -2275.258,-2111.112c-229.967,7.45 -1566.771,135.971 -1679.846,242.829l17.5,59.617c976.508,1225.817 2175.833,2544.046 3211.042,3746.354c359.567,-98.8 734.687,-221.162 1086.596,-346.633c277.621,-99.029 648.942,-219.758 724.167,-533.054l-0.017,0.017l0,0.004Z" style="fill:#50bac3;fill-rule:nonzero;"/><path d="M28994.521,45197.217c-98.888,-157.275 -269.55,-362.429 -388.246,-504.654c-473.542,46.892 -1052.917,92.654 -1515.433,177.987c675.608,1249.567 1293.263,2552.588 1991.338,3794.633c64.304,130 147.379,275.071 217.171,404.271c427.588,-13.975 1381.146,-71.267 1758.438,-261.562c371.787,-187.5 -467.917,-1237.429 -644.15,-1503.196c-466.283,-707.1 -939.358,-1409.583 -1419.112,-2107.467l0,-0.017l-0.004,0.004Z" style="fill:#50bac3;fill-rule:nonzero;"/><path d="M21119.05,50395.95c474.183,506.092 1364.808,1008.158 2031.3,1203.663c294.408,95.575 1422.987,371.475 1687.292,166.267c461.737,-358.596 2258.492,-1601.404 2410.313,-2107.204c-39.325,-287.379 -531.408,-358.004 -774.271,-420.121l-133.037,-32.396c-235.033,-66.217 -635.675,-150.904 -875.158,-184.062c-378.212,363.317 -978.421,839.583 -1400.817,1210.817c-599.896,70.85 -1305.888,82.604 -1913.35,117.517c-346.946,19.946 -679.342,5.987 -1032.292,45.537l0.017,-0.017l0.004,-0Z" style="fill:#50bac3;fill-rule:nonzero;"/><path d="M26340.667,49206.158c-84.912,126.804 3.888,279.008 138.525,311.008l42.517,-28.804c24.792,-95.537 -12.758,-156.321 -48.004,-249.808l-133.038,-32.396Z" style="fill:#68c8cf;fill-rule:nonzero;"/><path d="M26573.129,44993.571c-36.858,-45.071 -52.325,-58.871 -94.342,-99.408c-222.971,-65.346 -1149.096,21.754 -1454.217,36.962c101.025,653.613 235.712,1304.425 358.158,1953.871c99.029,525.192 172.829,1070.883 301.596,1587.812c86.162,40.571 184.321,76.788 273.7,111.979c370.521,127.05 1239.221,452.258 1591.475,189.896c61.875,-108.263 63.612,-256.338 37.275,-371.946c-258.021,-1131.613 -763.196,-2281.113 -1013.662,-3409.15l0.017,-0.017Z" style="fill:#50bac3;fill-rule:nonzero;"/></g><path d="M44910.788,37052.375c-319.758,-1411.546 -1330.433,-3161.458 -2378.942,-4169.062c-1179.254,-1133.229 -4548.508,-2096.371 -6130.017,-2037.012c-580.017,-71.617 -1326.283,-55.608 -1916.25,-47.658c154.029,255.625 429.967,377.133 643.887,613.975c522.012,577.95 1962.758,2362.292 2180.279,3009.392c897.917,78.942 1509.671,177.9 2396.771,366.596c717.846,197.692 2351.058,730.904 2578.262,831.338c954.825,422.1 1763.35,835.192 2626.008,1432.446l0,-0.017l0,0.004Z" style="fill:#50bac3;fill-rule:nonzero;"/><path d="M36401.812,30846.317c-580.017,-71.617 -1326.283,-55.608 -1916.25,-47.658c154.029,255.625 429.967,377.133 643.887,613.975c522.012,577.95 1962.758,2362.292 2180.279,3009.392c897.917,78.942 1509.671,177.9 2396.771,366.596c-66.217,-697.621 -2259.15,-3428.487 -2939.775,-3877.204c5.121,3.404 -330.817,-59.079 -364.929,-65.088l0.017,-0.017l0,0.004Z" style="fill:#68c8cf;fill-rule:nonzero;"/><path d="M39228.754,30210.708c-414.633,-614.079 -1037.846,-1230.679 -1587.363,-1721.388c-2219.775,-1982.188 -4386.892,-2397.725 -7302.554,-2194.95c-541.371,58.525 -1207.117,131.842 -1741.388,242.483c90.675,230.921 999.671,642.117 1250.225,809.967c699.342,468.438 2583.838,1597.325 2989.429,2257.763c602.588,-63.871 1174.304,-44.617 1772.221,-82.933c461.075,42.204 1006.617,33.558 1495.088,74.479c1143.975,95.937 2030.383,307.933 3124.321,614.567l0.017,0.017l0.004,-0.004Z" style="fill:#50bac3;fill-rule:nonzero;"/><path d="M30338.858,26294.371c-541.371,58.525 -1207.117,131.842 -1741.388,242.483c90.679,230.921 999.671,642.117 1250.225,809.967c699.342,468.438 2583.838,1597.325 2989.429,2257.763c602.588,-63.871 1174.304,-44.617 1772.221,-82.933c194.721,-116.771 191.754,-78.596 429.375,-58.542c-113.092,-145.779 -1656.475,-1337.638 -1858.333,-1469.825c-379.446,-246.442 -766.738,-480.675 -1161.146,-702.429c-398.471,-221.25 -1437.758,-702.517 -1680.383,-996.475l0,-0.008Z" style="fill:#68c8cf;fill-rule:nonzero;"/><path d="M17860.108,22343.313c-1597.346,641.233 -3039.479,1537.725 -4189.133,2832.621c-623.508,702.154 -981.633,1187.154 -1020.971,2161.562c-37.133,918.054 91.579,1791.546 452.362,2640.258c362.133,-699.567 708.679,-1326.946 1186.179,-1964.133c1425.938,-1903.108 3656.562,-3424.133 5873.004,-4272.171c-480.971,-382.204 -925.746,-649.079 -1473.613,-923.854c-211.354,-105.971 -702.812,-304.533 -827.846,-474.271l0.017,-0.017l0,0.004Z" style="fill:#50bac3;fill-rule:nonzero;"/><path d="M30850.667,25187.271c-248.542,-194.462 -504.95,-378.542 -768.663,-551.825c-2419.842,-1556.321 -4114.775,-1421.217 -6784.879,-839.688c-287.638,82.675 -575.954,162.1 -858.854,259.462c51.633,97.242 94.929,156.075 193.108,213.158c966.387,562.812 1933.037,1093.8 2832.917,1765.833c374.583,-120.242 815.433,-226.304 1199.862,-328.196c1695.175,-366.3 2429.688,-482.725 4186.513,-518.75l-0.004,0.004Z" style="fill:#50bac3;fill-rule:nonzero;"/><path d="M26664.154,25706.037c-223.492,-460.033 -2774.512,-1526.008 -3367.029,-1910.258c-287.638,82.675 -575.954,162.1 -858.854,259.463c51.633,97.242 94.929,156.075 193.108,213.158c966.387,562.812 1933.037,1093.8 2832.917,1765.833c374.583,-120.242 815.433,-226.304 1199.862,-328.196l-0.004,0Z" style="fill:#68c8cf;fill-rule:nonzero;"/><path d="M18602.592,21339.996c-44.238,-30.592 -89.342,-59.825 -135.313,-87.846c-959.496,-583.454 -1790.642,-728.871 -2866.721,-471.092c-162.242,57.796 -330.433,115.208 -490.433,177.829c-847.117,314.112 -1196.008,574.967 -1907.012,1115.85c-996.946,758.383 -1149.008,2044.392 -673.592,3194.842c1291.529,-1626.042 2258.804,-2431.633 4173.613,-3325.921l247.742,-95.642c601.058,-232.9 1035.883,-356.354 1651.717,-508.004l0,-0.017Z" style="fill:#50bac3;fill-rule:nonzero;"/><path d="M18602.592,21339.996c-44.238,-30.592 -89.342,-59.825 -135.313,-87.846c-959.496,-583.454 -1790.642,-728.871 -2866.721,-471.092c474.758,375.85 1375.729,282.883 1350.312,1066.946c601.058,-232.9 1035.883,-356.354 1651.717,-508.004l0.004,-0.004Z" style="fill:#50bac3;fill-rule:nonzero;"/><path d="M15600.563,20781.054c-162.242,57.796 -330.433,115.208 -490.433,177.829c151.858,368.037 1226.633,909.792 1593.004,984.758l247.742,-95.642c25.417,-784.062 -875.554,-691.096 -1350.312,-1066.946Z" style="fill:#68c8cf;fill-rule:nonzero;"/><path d="M23631.671,22762.15c-71.842,-34.929 -166.667,-87.812 -237.779,-126.754c-1772.275,-971.442 -2932.171,-1096.858 -4836.633,-521.546c-226.754,74.046 -474.183,149.913 -697.154,229.446c125.033,169.742 616.492,368.283 827.846,474.271c547.863,274.775 992.638,541.65 1473.613,923.854l706.65,-270.763c986.925,-345.433 1744.983,-517.237 2763.454,-708.525l0,0.017l0.004,0Z" style="fill:#50bac3;fill-rule:nonzero;"/><path d="M18557.246,22113.867c-226.754,74.046 -474.183,149.913 -697.154,229.446c125.033,169.742 616.492,368.283 827.846,474.271c547.867,274.775 992.638,541.65 1473.613,923.854l706.65,-270.763l-13.421,-139.133c-302.308,-378.054 -1819.392,-922.467 -2297.533,-1217.675Z" style="fill:#68c8cf;fill-rule:nonzero;"/><path d="M28475.5,37287.679c-357.933,-11.179 -514.479,247.154 -392.171,557.342c234.567,594.775 496.804,1309.446 779.217,1876.529c0,0 612.221,550.054 667.363,-191.721c18.004,-242.204 -664.392,-1831.563 -855.85,-2098.075c-40.8,-56.738 -135.729,-111.404 -198.558,-144.079l0,0.004Z" style="fill:#50bac3;fill-rule:nonzero;"/><path d="M33913.663,37287.679c357.933,-11.179 514.479,247.154 392.171,557.342c-234.567,594.775 -496.804,1309.446 -779.217,1876.529c0,0 -612.221,550.054 -667.363,-191.721c-18.004,-242.204 664.392,-1831.563 855.85,-2098.075c40.8,-56.738 135.729,-111.404 198.558,-144.079l0,0.004Z" style="fill:#50bac3;fill-rule:nonzero;"/><path d="M13290.717,19406.854c-1008.717,-248.767 -1132.204,123.888 -1164.55,1121.513c-17.242,530.346 102.467,1064.013 232.117,1575.696c247.571,-285.625 556.908,-540.033 849.775,-776.513c718.038,-530.85 1272.483,-817.363 2135.367,-1021.371c-683.454,-467.154 -1266.354,-677.621 -2052.725,-899.321l0.017,0l0,-0.004Z" style="fill:#50bac3;fill-rule:nonzero;"/></svg>