<?xml version="1.0" encoding="UTF-8" standalone="no"?><!DOCTYPE svg PUBLIC "-//W3C//DTD SVG 1.1//EN" "http://www.w3.org/Graphics/SVG/1.1/DTD/svg11.dtd"><svg width="100%" height="100%" viewBox="0 0 4267 4267" version="1.1" xmlns="http://www.w3.org/2000/svg" xmlns:xlink="http://www.w3.org/1999/xlink" xml:space="preserve" xmlns:serif="http://www.serif.com/" style="fill-rule:evenodd;clip-rule:evenodd;stroke-linejoin:round;stroke-miterlimit:2;"><path d="M643.866,785.989c49.797,-54.181 105.771,-109.354 161.338,-157.444c361.032,-315.808 823.108,-492.078 1302.744,-496.971c530.955,-9.185 1043.691,193.526 1424.816,563.309c380.278,364.542 596.952,867.384 600.738,1394.155c1.368,188.626 -22.388,376.587 -70.637,558.945c-12.783,49.444 -45.781,144.218 -56.885,178.001c-27.229,82.841 -62.484,148.332 -110.628,237.201c-35.516,65.559 -79.916,125.973 -119.994,188.901l-11.292,12.891c-35.822,59.404 -115.087,147.492 -163.285,198.376c-267.855,284.278 -612.673,484.428 -992.372,576.034c-517.955,124.315 -1064.023,40.251 -1520.605,-234.096c-448.903,-269.578 -771.826,-706.986 -897.248,-1215.365c-97.78,-399.879 -70.572,-824.31 80.365,-1208.337c48.944,-124.525 94.169,-211.614 165.652,-321.193c91.457,-140.198 118.006,-177.258 207.293,-274.406Z" style="fill:#1b222f;fill-rule:nonzero;"/><path d="M1296.949,3037.436c91.844,-218.674 189.316,-383.543 352.233,-558.858c315.829,-339.855 806.048,-547.713 1269.046,-561.693c23.143,30.683 54.658,52.645 79.948,80.637c71.669,79.291 148.474,178.099 190.929,276.065c-235.736,-18.408 -472.705,13.2 -695.365,92.758c-275.49,97.278 -539.773,309.86 -697.471,554.102c-49.019,75.911 -85.721,151.885 -124.858,232.901c-123.164,-39.846 -250.508,-77.617 -374.462,-115.911Z" style="fill:#51bdc3;fill-rule:nonzero;"/><path d="M1181.696,2932.033c-49.265,-55.377 -115.336,-165.31 -129.923,-237.996c-29.646,-147.776 91.833,-390.723 173.333,-506.634c252.316,-358.838 702.7,-613.003 1128.379,-691.862c5.742,14.237 3.708,15.244 17.555,24.17c110.118,70.95 243.79,138.418 339.372,229.357c11.813,9.173 22.537,17.946 35.049,26.174c9.42,7.612 17.894,14.597 27.057,22.578c-186.779,17.36 -370.312,60.174 -545.504,127.242c-270.374,101.017 -503.871,260.215 -702.433,469.09c-149.943,157.729 -253.209,341.828 -342.886,537.882Z" style="fill:#51bdc3;fill-rule:nonzero;"/><path d="M976.981,2462.964c-116.332,-181.376 -126.091,-388.987 -25.177,-577.985c165.392,-309.758 478.643,-514.842 806.079,-618.396c19.476,24.294 229.265,146.327 282.608,191.761c-81.91,20.76 -208.412,78.13 -284.632,115.059c-289.337,140.185 -532.541,356.794 -682.792,643.07c-41.828,79.712 -68.125,161.006 -96.086,246.491Z" style="fill:#51bdc3;fill-rule:nonzero;"/><path d="M2918.229,1916.884c92.347,-2.291 157.093,-0.493 249.594,7.345c233.025,30.354 462.526,93.703 611.082,286.953c72.912,95.942 126.656,205.033 158.294,321.304c-176.877,-113.169 -306.347,-174.442 -514.246,-221.674c-81.448,-19.199 -151.248,-27.91 -233.846,-37.226c-42.455,-97.966 -119.26,-196.774 -190.929,-276.065c-25.29,-27.992 -56.805,-49.954 -79.948,-80.637Z" style="fill:#51bdc3;fill-rule:nonzero;"/><path d="M2918.229,1916.884c92.347,-2.291 157.093,-0.493 249.594,7.345c0.421,1.828 5.259,22.732 5.27,22.743c79.835,89.245 157.606,183.02 219.229,285.957c15.552,25.978 22.188,49.45 30.632,77.884c-81.448,-19.199 -151.248,-27.91 -233.846,-37.226c-42.455,-97.966 -119.26,-196.774 -190.929,-276.065c-25.29,-27.992 -56.805,-49.954 -79.948,-80.637Z" style="fill:#6bcbd0;fill-rule:nonzero;"/><path d="M2536.114,1472.818c31.227,-5.958 93.128,-4.633 126.235,-3.544c161.284,5.29 318.52,40.37 452.757,133.929c97.781,68.156 199.835,161.088 268.607,259.403c-180.174,-53.456 -293.497,-70.827 -482.3,-69.604c-33.939,1.13 -97.072,5.732 -128.895,4.818c-9.163,-7.981 -17.637,-14.967 -27.057,-22.578c-12.512,-8.228 -23.236,-17 -35.049,-26.174c-95.583,-90.94 -229.255,-158.407 -339.372,-229.357c-13.847,-8.927 -11.813,-9.933 -17.555,-24.17c60.359,-11.238 121.356,-18.829 182.629,-22.722Z" style="fill:#51bdc3;fill-rule:nonzero;"/><path d="M2353.485,1495.54c60.359,-11.238 121.356,-18.829 182.629,-22.722l8.916,5.3l-3.801,9.461c6.656,15.038 174.494,104.91 203.338,121.633c74.751,43.359 133.477,94.175 202.639,143.4l8.772,8.002c-7.632,22.116 -33.313,25.722 -54.566,32.388c-33.939,1.13 -97.072,5.732 -128.895,4.818c-9.163,-7.981 -17.637,-14.967 -27.057,-22.578c-12.512,-8.228 -23.236,-17 -35.049,-26.174c-95.583,-90.94 -229.255,-158.407 -339.372,-229.357c-13.847,-8.927 -11.813,-9.933 -17.555,-24.17Z" style="fill:#6bcbd0;fill-rule:nonzero;"/><path d="M869.555,1837.758c-93.528,-249.142 -39.63,-400.102 161.366,-563.573c101.037,-82.167 176.846,-123.092 295.746,-172.367c16.918,26.389 178.695,106.204 219.311,134.432c-224.622,91.238 -430.158,234.709 -572.048,433.312c-38.038,53.241 -69.645,112.193 -104.376,168.197Z" style="fill:#51bdc3;fill-rule:nonzero;"/><path d="M1847.097,1239.618c294.504,-72.131 478.345,-60.503 725.391,126.79c-170.313,4.931 -265.741,18.531 -431.545,60.185l-100.452,31.751c-53.343,-45.434 -263.132,-167.467 -282.608,-191.761c22.404,-8.639 64.684,-19.795 89.214,-26.964Z" style="fill:#51bdc3;fill-rule:nonzero;"/><path d="M1847.097,1239.618c59.26,41.572 255.089,121.284 295.87,166.882c-0.226,10.375 0.421,10.2 -2.024,20.092l-100.452,31.751c-53.343,-45.434 -263.132,-167.467 -282.608,-191.761c22.404,-8.639 64.684,-19.795 89.214,-26.964Z" style="fill:#6bcbd0;fill-rule:nonzero;"/><path d="M1114.813,952.079c98.356,-23.256 187.426,-11.988 274.627,41.685c3.246,2.003 6.461,4.058 9.646,6.174l-146.872,47.149l-48.033,21.5c-181.232,93.6 -262.485,157.103 -383.954,315.572c-75.254,-218.726 37.596,-323.266 223.194,-406.943l71.392,-25.136Z" style="fill:#51bdc3;fill-rule:nonzero;"/><path d="M1114.813,952.079c98.356,-23.256 187.426,-11.988 274.627,41.685c3.246,2.003 6.461,4.058 9.646,6.174l-146.872,47.149c-42.969,-52.645 -77.154,-69.368 -137.401,-95.007Z" style="fill:#51bdc3;fill-rule:nonzero;"/><path d="M1043.422,977.216l71.392,-25.136c60.246,25.639 94.432,42.362 137.401,95.007l-48.033,21.5c-42.825,-20.77 -129.933,-60.565 -160.76,-91.371Z" style="fill:#6bcbd0;fill-rule:nonzero;"/><path d="M1382.589,1081.375c174.925,-52.881 291.36,-52.234 455.736,35.614c14.34,7.684 28.608,15.511 42.794,23.462c-96.086,18.757 -157.267,33.682 -250.528,64.674c-24.325,8.772 -61.921,21.161 -84.612,31.125c-40.616,-28.228 -202.393,-108.043 -219.311,-134.432l55.922,-20.442Z" style="fill:#51bdc3;fill-rule:nonzero;"/><path d="M1326.667,1101.817l55.922,-20.442c47.591,20.822 221.314,92.727 248.001,123.749c-24.325,8.772 -61.921,21.161 -84.612,31.125c-40.616,-28.228 -202.393,-108.043 -219.311,-134.432Z" style="fill:#6bcbd0;fill-rule:nonzero;"/><path d="M819.632,811.083c81.674,-4.14 190.775,55.11 261.848,93.076c-55.799,18.5 -91.494,34.782 -143.163,62.095c-54.227,34.525 -84.961,63.307 -131.669,107.889c-25.157,-73.241 -51.186,-205.351 12.984,-263.06Z" style="fill:#51bdc3;fill-rule:nonzero;"/><path d="M2468.189,2508.721c-40.237,-1.257 -57.835,27.784 -44.086,62.654c26.369,66.862 55.849,147.202 87.596,210.951c0,0 68.823,61.835 75.022,-21.552c2.024,-27.228 -74.688,-205.896 -96.211,-235.856c-4.587,-6.378 -15.258,-12.524 -22.321,-16.197l0,0Z" style="fill:#50bac3;fill-rule:nonzero;"/><path d="M3079.523,2508.721c40.237,-1.257 57.835,27.784 44.086,62.654c-26.369,66.862 -55.849,147.202 -87.596,210.951c0,0 -68.823,61.835 -75.022,-21.552c-2.024,-27.228 74.688,-205.896 96.211,-235.856c4.587,-6.378 15.258,-12.524 22.321,-16.197l0,0Z" style="fill:#50bac3;fill-rule:nonzero;"/></svg>